<svg xmlns="http://www.w3.org/2000/svg" data-name="Layer 2" viewBox="0 0 144.35 164.225" x="0px" y="0px"><title>onehand</title><path d="M1156.71,393.26s-1.64,5.16,0,9.65,4.22,6.45,7.29,6.08c3.49-.43,6-3.27,5-7.65a15.53,15.53,0,0,0-3.17-7.13,9.91,9.91,0,0,0-3-2.62l1.21-2.92a1.18,1.18,0,0,1,.31-0.13c0.29-.13.58-0.28,0.87-0.43a21,21,0,0,0,3-2,14.27,14.27,0,0,0,2.56-2.42l0.1-.13a27.75,27.75,0,0,0,1.75-3.12l0.58-1.07,1.35-2.53,1.43-2.68,1.38-2.58,1.19-2.22,0.86-1.61,0.39-.74v0l10.23-9.33,3.83,0.57,2.38-2.58-0.31-3.07-3.95-.71-1.9,2.33-13.83,8.19-7.59,10.48-3.55,5.61,2-5.31-1.34-25.47,45.8-26.17s-3.18-11-9.88-13.06L1152.39,331s-5.23,2-9.43.34l-46.56-15.67s-8.86,7.38-8.18,15.33L1141,353.4l4.94-.4-4.62,1.35,3.64,26.43s-0.75,19-.49,29.92l3.59,19.36-1.7,3.86,1,4.32h4.54l3.29-3.75-3-4.2-1.57-21.38,1.91-12.35a28.32,28.32,0,0,0,1.59-4.54Z" transform="translate(-1077.65 -306.85)"/><path d="M1206.18,311l4.28-4.11L1222,319.09s-2.69,3.25-11-5.5l-1.69,1.33Z" transform="translate(-1077.65 -306.85)"/><path d="M1092.79,318.55l-4.54-3.78-10.59,13s2.9,3,10.53-6.24l1.77,1.2Z" transform="translate(-1077.65 -306.85)"/><text x="0" y="146.38" fill="#000000" font-size="5px" font-weight="bold" font-family="'Helvetica Neue', Helvetica, Arial-Unicode, Arial, Sans-serif">Created by Ivan Sakoman</text><text x="0" y="151.38" fill="#000000" font-size="5px" font-weight="bold" font-family="'Helvetica Neue', Helvetica, Arial-Unicode, Arial, Sans-serif">from the Noun Project</text></svg>